<?xml version="1.0"?><svg xmlns="http://www.w3.org/2000/svg" width="100" height="100" viewBox="0 0 100 100"><path fill="#fff" d="m76.7 60.5h3.6l-1.7-5.7 1.7-5.7h-6c-1.1-3.3-2.6-6.7-4.8-9.9-2-3-4.5-6-7.7-8.6-3.2-2.6-7-4.9-11.6-6.7l-0.3-0.1-0.3 0.1s-1.7 0.5-4.2 1.7c-1.9 0.9-4.2 2.3-6.7 4.2-3.7 2.9-7.7 7-10.7 12.9-1 1.9-1.9 4.1-2.7 6.4h-5.5l1.7 5.7-1.7 5.7h3.2c-0.2 1.7-0.2 3.5-0.2 5.4 0 1 0 2.1 0.1 3.1v0.5l0.5 0.3s2.8 1.6 7.6 3.2c4.7 1.6 11.4 3.2 19.3 3.2 6.3 0 13.3-1 20.7-3.9 1.8-0.7 3.6-1.5 5.5-2.5l0.4-0.2h0.1v-0.5c0-0.6 0-1.3 0.1-1.9v-1.2c-0.1-1.5-0.2-3.4-0.4-5.5z m-54.3-2l1.1-3.7-1.1-3.7h55.2l-1.1 3.7 1.1 3.7h-55.2z m9.9-9.4l4-6.7 0.1-0.2 3.4-5.7 5.7 7.3 3.4-3.5 3.8 4.5 5.6-8.3 9.2 12.6h-35.2z m-3.6-3.6c0.7-1.6 1.5-3 2.3-4.4 0.1-0.2 0.3-0.4 0.4-0.7 0.1-0.2 0.2-0.4 0.4-0.6 7.3-11.1 17.6-14.2 17.8-14.2l0.3-0.1 0.3 0.1c7.4 3 12.7 7.6 16.3 12.6 1.2 1.6 2.2 3.2 3.1 4.8 1.1 2 1.9 4 2.6 6h-2.2c-3-8-8.9-16.7-20.3-21.4-2.3 0.7-14.9 5.5-20.5 21.4h-2.1c0.6-1.1 1-2.3 1.6-3.5z m46.5 22.3v0.6l-0.5 0.3c-8.6 4.3-17 5.7-24.3 5.7-13.5 0-23.5-4.9-25-5.6l-0.6-0.3h-0.1v-0.6c-0.1-2.6 0.1-5 0.3-7.3h2c-0.2 2.1-0.3 4.3-0.3 6.7 1.9 0.9 9 4.1 18.7 5 2.1-1.2 3.7-3.8 0.2-6.7 0 0-0.1 0-0.1-0.1h-0.1l-0.1-0.1s-0.1 0-0.1-0.1l-0.1-0.1-0.1-0.1-0.1-0.1-0.1-0.1-0.1-0.1c0-0.1-0.1-0.1-0.1-0.2 0 0 0-0.1-0.1-0.1 0-0.1-0.1-0.1-0.1-0.2v-0.2c-0.5-1.1 0-2.3 3.3-2.5 1-0.1 4.3 0.1 3.1-1.1h1.6c1 1.1 1 2.5-4 3-0.7 0.1-1 0.4-0.8 0.7h0.6c5.1 1.2 6.3 5 5.9 7.5 5.9-0.4 12.3-1.9 18.9-5.1 0-1 0-3.5-0.4-6.6h2c0.1 0.6 0.1 1.1 0.2 1.6 0.5 3.9 0.4 6.1 0.4 6.2z"></path></svg>