<?xml version="1.0"?><svg xmlns="http://www.w3.org/2000/svg" width="52" height="52" viewBox="0 0 52 52"><title></title><desc></desc><path fill="#fff" d="m46.3 18.8c2 0 3.7-1.7 3.7-3.7v-9.4c0-2-1.7-3.7-3.7-3.7h-40.6c-2 0-3.7 1.7-3.7 3.7v9.4c0 2 1.7 3.7 3.7 3.7h40.6z"></path><path fill-rule="evenodd" clip-rule="evenodd" fill="#fff" d="m46.3 24h-40.6c-2 0-3.7 1.7-3.7 3.7v9.4c0 2 1.7 3.7 3.7 3.7h20.3l9.6 8.9c0.4 0.4 1 0.3 1.4-0.1 0.1-0.1 0.2-0.2 0.2-0.4l2.3-8.4h6.7c2 0 3.7-1.7 3.7-3.7v-9.4c0.1-2-1.6-3.7-3.6-3.7z"></path></svg>