<?xml version="1.0"?><svg xmlns="http://www.w3.org/2000/svg" width="52" height="52" viewBox="0 0 52 52"><title></title><desc></desc><path fill="#fff" d="m45.4 33.3h2.6l-1.2-4.1 1.2-4.1h-4.4c-0.8-2.4-1.9-4.8-3.5-7.2-1.5-2.2-3.3-4.3-5.6-6.3-2.3-1.9-5.1-3.6-8.4-4.9l-0.2-0.1-0.2 0.1s-1.3 0.3-3.1 1.2c-1.4 0.7-3.1 1.7-4.9 3.1-2.7 2.1-5.6 5.1-7.8 9.4-0.7 1.4-1.4 3-1.9 4.7h-4l1.2 4.1-1.2 4.1h2.4c-0.1 1.3-0.2 2.6-0.2 3.9 0 0.7 0 1.5 0.1 2.3v0.4l0.3 0.2s2.1 1.2 5.5 2.3c3.5 1.2 8.3 2.3 14.1 2.3 4.6 0 9.7-0.7 15.1-2.8 1.3-0.5 2.7-1.1 4-1.8l0.3-0.2h0.1v-2.7c0-1-0.1-2.3-0.3-3.9z m-39.5-1.4l0.8-2.7-0.8-2.7h40.2l-0.8 2.7 0.8 2.7h-40.2z m7.2-6.8l2.9-4.9 0.1-0.1 2.5-4.1 4.2 5.3 2.5-2.5 2.7 3.2 4.1-6 6.7 9.1h-25.7z m-2.6-2.7c0.5-1.1 1.1-2.2 1.7-3.2 0.1-0.2 0.2-0.3 0.3-0.5 0.1-0.1 0.2-0.3 0.3-0.4 5.2-8 12.8-10.3 12.9-10.3l0.2-0.1 0.2 0.1c5.4 2.2 9.2 5.5 11.9 9.2 0.9 1.1 1.6 2.3 2.3 3.5 0.8 1.4 1.4 2.9 1.9 4.3h-1.6c-2.2-5.8-6.5-12.1-14.7-15.6-1.7 0.5-10.8 4-14.9 15.6h-1.6c0.3-0.8 0.7-1.7 1.1-2.6z m33.8 16.3v0.4l-0.4 0.2c-6.3 3.1-12.3 4.2-17.7 4.2-9.8 0-17.1-3.5-18.2-4.1-0.2-0.1-0.3-0.2-0.4-0.2h-0.1v-0.4c0-1.9 0-3.6 0.2-5.3h1.5c-0.2 1.3-0.3 2.9-0.2 4.7 1.4 0.7 6.6 3 13.6 3.6 1.6-0.9 2.7-2.7 0.1-4.9h-0.2l-0.1-0.1-0.1-0.1-0.1-0.1v-0.1l-0.1-0.1v-0.1l-0.1-0.1v-0.2c-0.4-0.8 0-1.6 2.4-1.8 0.7-0.1 3.1 0.1 2.2-0.8h1.2c0.7 0.8 0.7 1.8-2.9 2.2-0.5 0-0.7 0.3-0.6 0.5h0.1c3.7 0.9 4.6 3.6 4.3 5.5 4.3-0.3 9-1.4 13.7-3.7 0-0.8 0-2.5-0.3-4.8h1.5c0 0.4 0.1 0.8 0.1 1.2 0.7 2.7 0.6 4.3 0.6 4.4z"></path></svg>