<svg xmlns="http://www.w3.org/2000/svg" width="512" height="512" viewBox="0 0 512 512"><g><path d="M304 62.986c1.88 32.975-35.804 58.895-65.936 45.267-32.202-11.316-40.607-58.647-14.085-80.24C248.67 3.622 295.376 17.947 302.5 51.77c.94 3.662 1.446 7.435 1.5 11.216z" fill-opacity=".202"/><path d="M425.675 154.292c-22.343 24.325-67.192 15.355-78.412-15.755-14.32-30.984 13.774-69.99 47.742-66.01 34.703.715 56.97 44.198 37.672 72.875-1.973 3.225-4.327 6.218-7.002 8.89z" fill-opacity=".316"/><path d="M448.358 304.064c-32.99 1.595-58.584-36.314-44.695-66.328 11.597-32.104 59-40.098 80.362-13.387 24.18 24.903 9.448 71.483-24.437 78.314-3.67.907-7.45 1.38-11.23 1.4z" fill-opacity=".43"/><path d="M357.683 425.677c-24.28-22.395-15.213-67.227 15.92-78.38 31.017-14.256 69.966 13.922 65.914 47.884-.79 34.702-44.322 56.877-72.96 37.518-3.22-1.98-6.208-4.34-8.874-7.02z" fill-opacity=".544"/><path d="M208.055 448.4c-1.54-32.993 36.412-58.52 66.4-44.58 32.085 11.65 39.997 59.066 13.25 80.382-24.943 24.134-71.496 9.325-78.27-24.57-.9-3.672-1.367-7.45-1.38-11.232z" fill-opacity=".658"/><path d="M85.57 358.618c22.004-24.63 66.973-16.28 78.62 14.67 14.746 30.784-12.807 70.175-46.827 66.664-34.708-.238-57.572-43.41-38.672-72.35 1.93-3.25 4.242-6.276 6.88-8.984z" fill-opacity=".772"/><path d="M63.68 208.05c32.986-1.684 58.68 36.154 44.875 66.205-11.508 32.134-58.888 40.258-80.323 13.607-24.245-24.838-9.642-71.456 24.223-78.38 3.668-.916 7.444-1.4 11.225-1.43z" fill-opacity=".886"/><path d="M153.9 86.14c24.44 22.218 15.693 67.113-15.36 78.49-30.91 14.475-70.06-13.423-66.25-47.412.542-34.705 43.913-57.19 72.686-38.037 3.235 1.958 6.24 4.297 8.925 6.96z"/><animateTransform attributeName="transform" attributeType="XML" dur="1s" repeatCount="indefinite" calcMode="discrete" values="0 256 256; 45 256 256; 90 256 256; 135 256 256; 180 256 256; 225 256 256; 270 256 256; 315 256 256" type="rotate"/></g></svg>